<svg width="227" height="40" xmlns="http://www.w3.org/2000/svg" xmlns:xlink="http://www.w3.org/1999/xlink" xml:space="preserve" overflow="hidden"><defs><clipPath id="clip0"><rect x="65" y="558" width="227" height="40"/></clipPath><clipPath id="clip1"><rect x="65" y="558" width="227" height="40"/></clipPath><clipPath id="clip2"><rect x="66" y="559" width="225" height="39"/></clipPath><clipPath id="clip3"><rect x="66" y="559" width="225" height="39"/></clipPath><clipPath id="clip4"><rect x="66" y="559" width="225" height="39"/></clipPath></defs><g clip-path="url(#clip0)" transform="translate(-65 -558)"><g clip-path="url(#clip1)"><g clip-path="url(#clip2)"><g clip-path="url(#clip3)"><g clip-path="url(#clip4)"><text fill="#000000" fill-opacity="1" font-family="Arial,Arial_MSFontService,sans-serif" font-style="normal" font-variant="normal" font-weight="700" font-stretch="normal" font-size="119" text-anchor="start" direction="ltr" writing-mode="lr-tb" unicode-bidi="normal" text-decoration="none" transform="matrix(0.296488 0 0 0.308691 66.2466 590)">MyShu</text><text fill="#000000" fill-opacity="1" font-family="Arial,Arial_MSFontService,sans-serif" font-style="normal" font-variant="normal" font-weight="700" font-stretch="normal" font-size="119" text-anchor="start" direction="ltr" writing-mode="lr-tb" unicode-bidi="normal" text-decoration="none" transform="matrix(0.296488 0 0 0.308691 187.466 590)">s</text><text fill="#000000" fill-opacity="1" font-family="Arial,Arial_MSFontService,sans-serif" font-style="normal" font-variant="normal" font-weight="700" font-stretch="normal" font-size="119" text-anchor="start" direction="ltr" writing-mode="lr-tb" unicode-bidi="normal" text-decoration="none" transform="matrix(0.296488 0 0 0.308691 206.064 590)">.</text><path d="M185.15 7.07211C185.15 7.07211 184.251 6.47325 183.399 6.39607 182.547 6.3189 180.288 9.79785 174.077 9.98306 167.866 10.1714 162.439 10.1961 159.164 9.61263 155.889 9.02921 153.509 5.41444 153.509 5.41444 153.509 5.41444 153.645 5.0934 153.203 5.05944 152.762 5.02549 152.663 6.34668 152.663 6.34668 152.663 6.34668 151.32 26.7172 150.626 29.9862 150.626 29.9862 150.067 31.4926 152.929 31.7118 155.79 31.931 157.939 31.3229 159.386 31.2117 160.834 31.1006 164.887 30.1961 166.758 30.3381 168.629 30.4801 172.716 30.5727 172.716 30.5727 172.716 30.5727 177.025 30.6808 178.124 30.7672 179.223 30.8536 182.399 31.3167 183.946 31.3259 185.492 31.3352 187.838 31.0728 188.499 31.1222L194.991 31.6192C195.762 31.6779 203.276 31.8137 203.276 31.8137 204.495 31.7952 211.546 32.2273 213 32.0082 214.457 31.789 220.26 31.1284 220.853 30.619 221.446 30.1097 222.106 27.2852 222.054 26.5042 222.001 25.7232 221.214 23.0098 220.032 22.5869 218.846 22.164 217.399 20.8366 216.738 20.7842 216.738 20.7842 216.077 20.7348 215.645 20.5897 215.213 20.4446 214.485 19.8365 213.741 19.4475 212.997 19.0586 209.737 18.256 208.857 18.1881 207.977 18.1202 206.31 16.7743 204.736 15.6568 203.162 14.5393 202.054 14.564 201.087 14.1596 200.121 13.7553 199.649 12.7211 198.896 12.4433 198.142 12.1655 196.51 11.8167 195.543 11.4123 194.577 11.0079 191.32 8.76373 185.252 7.08137" fill="#000000" fill-rule="nonzero" fill-opacity="1" transform="matrix(1.01102 0 0 1 66.2466 559)"/></g></g></g></g></g></svg>