<svg width="203" height="105" xmlns="http://www.w3.org/2000/svg" xmlns:xlink="http://www.w3.org/1999/xlink" xml:space="preserve" overflow="hidden"><defs><clipPath id="clip0"><rect x="65" y="232" width="203" height="105"/></clipPath><clipPath id="clip1"><rect x="65" y="232" width="203" height="105"/></clipPath><clipPath id="clip2"><rect x="66" y="232" width="201" height="105"/></clipPath><clipPath id="clip3"><rect x="66" y="232" width="201" height="105"/></clipPath><clipPath id="clip4"><rect x="66" y="232" width="201" height="105"/></clipPath></defs><g clip-path="url(#clip0)" transform="translate(-65 -232)"><g clip-path="url(#clip1)"><g clip-path="url(#clip2)"><g clip-path="url(#clip3)"><g clip-path="url(#clip4)"><path d="M95.1008 33.089C95.1008 33.089 92.5288 31.4845 90.1323 31.3399 87.7359 31.1953 81.6827 41.1461 64.2602 42.1894 46.8377 43.2327 31.6119 43.7595 22.3669 42.3925 13.122 41.029 6.14609 31.0817 6.14609 31.0817 6.14609 31.0817 6.50074 30.1658 5.26119 30.1107 4.02164 30.0556 3.84948 33.7673 3.84948 33.7673 3.84948 33.7673 1.78013 91.0654 0.106739 100.297 0.106739 100.297-1.33596 104.573 6.71422 104.952 14.7644 105.331 20.7452 103.44 24.8013 103.01 28.8539 102.579 40.1579 99.6975 45.4225 99.9454 50.6872 100.193 62.1668 100.111 62.1668 100.111 62.1668 100.111 74.2696 100.059 77.365 100.204 80.4604 100.348 89.4093 101.388 93.758 101.285 98.1067 101.178 104.666 100.245 106.522 100.334 108.378 100.424 124.788 101.192 124.788 101.192 126.954 101.295 148.064 101.044 148.064 101.044 151.483 100.896 171.309 101.515 175.379 100.775 179.445 100.035 195.69 97.697 197.312 96.2199 198.934 94.7462 200.548 86.7546 200.342 84.5716 200.135 82.3886 197.697 74.8308 194.334 73.7393 190.973 72.6513 186.796 69.0428 184.94 68.9533 184.94 68.9533 183.085 68.8672 181.859 68.4988 180.633 68.1303 178.54 66.4811 176.419 65.4515 174.294 64.422 165.08 62.4388 162.605 62.3217 160.129 62.2046 155.336 58.5686 150.822 55.5627 146.308 52.5603 143.199 52.7221 140.458 51.6616 137.714 50.6011 136.299 47.7432 134.16 47.0236 132.022 46.304 127.408 45.4638 124.664 44.4068 121.92 43.3463 112.585 37.3242 95.4107 33.1062" fill="#000000" fill-rule="nonzero" fill-opacity="1" transform="matrix(1.00319 0 0 1 66.006 232)"/><text fill="#000000" fill-opacity="1" font-family="Arial,Arial_MSFontService,sans-serif" font-style="normal" font-variant="normal" font-weight="700" font-stretch="normal" font-size="119" text-anchor="start" direction="ltr" writing-mode="lr-tb" unicode-bidi="normal" text-decoration="none" transform="matrix(0.328147 0 0 0.344319 81.2354 267)">My</text><text fill="#FFFFFF" fill-opacity="1" font-family="Arial,Arial_MSFontService,sans-serif" font-style="normal" font-variant="normal" font-weight="700" font-stretch="normal" font-size="127" text-anchor="start" direction="ltr" writing-mode="lr-tb" unicode-bidi="normal" text-decoration="none" transform="matrix(0.328147 0 0 0.344319 98.002 318)">Shu</text><text fill="#FFFFFF" fill-opacity="1" font-family="Arial,Arial_MSFontService,sans-serif" font-style="normal" font-variant="normal" font-weight="700" font-stretch="normal" font-size="127" text-anchor="start" direction="ltr" writing-mode="lr-tb" unicode-bidi="normal" text-decoration="none" transform="matrix(0.328147 0 0 0.344319 179.08 318)">s</text><text fill="#FFFFFF" fill-opacity="1" font-family="Arial,Arial_MSFontService,sans-serif" font-style="normal" font-variant="normal" font-weight="700" font-stretch="normal" font-size="127" text-anchor="start" direction="ltr" writing-mode="lr-tb" unicode-bidi="normal" text-decoration="none" transform="matrix(0.328147 0 0 0.344319 201.106 318)">.</text></g></g></g></g></g></svg>